<svg width="28" height="13" viewBox="0 0 28 13" fill="none" xmlns="http://www.w3.org/2000/svg">
<path d="M1.11133 5.74396L0.361328 5.74396L0.361328 7.24396L1.11133 7.24396L1.11133 6.49396L1.11133 5.74396ZM27.1489 7.02429C27.4418 6.7314 27.4418 6.25652 27.1489 5.96363L22.3759 1.19066C22.083 0.897765 21.6082 0.897765 21.3153 1.19066C21.0224 1.48355 21.0224 1.95843 21.3153 2.25132L25.5579 6.49396L21.3153 10.7366C21.0224 11.0295 21.0224 11.5044 21.3153 11.7973C21.6082 12.0902 22.083 12.0902 22.3759 11.7973L27.1489 7.02429ZM1.11133 6.49396L1.11133 7.24396L26.6186 7.24396L26.6186 6.49396L26.6186 5.74396L1.11133 5.74396L1.11133 6.49396Z" fill="white"/>
</svg>
